<mxfile host="app.diagrams.net" modified="2023-08-15T20:07:38.235Z" agent="Mozilla/5.0 (Windows NT 10.0; Win64; x64) AppleWebKit/537.36 (KHTML, like Gecko) Chrome/115.0.0.0 Safari/537.36" etag="q5dPILRWSuDY3zKRd1M9" version="21.6.8" type="device">
  <diagram name="Página-1" id="WIpcqg9jHle6e86ajNZn">
    <mxGraphModel dx="2630" dy="993" grid="0" gridSize="10" guides="1" tooltips="1" connect="1" arrows="1" fold="1" page="1" pageScale="1" pageWidth="827" pageHeight="1169" math="0" shadow="0">
      <root>
        <mxCell id="0" />
        <mxCell id="1" parent="0" />
        <mxCell id="NKexMCV8kcUPG6wa-SMc-1" value="1 Forma Normal" style="text;html=1;align=center;verticalAlign=middle;resizable=0;points=[];autosize=1;strokeColor=none;fillColor=none;" vertex="1" parent="1">
          <mxGeometry x="1188" y="58" width="105" height="26" as="geometry" />
        </mxCell>
        <mxCell id="NKexMCV8kcUPG6wa-SMc-2" value="Funcionarios" style="shape=table;startSize=30;container=1;collapsible=0;childLayout=tableLayout;strokeColor=default;fontSize=16;" vertex="1" parent="1">
          <mxGeometry x="78" y="252" width="604.3711140950519" height="231" as="geometry" />
        </mxCell>
        <mxCell id="NKexMCV8kcUPG6wa-SMc-15" style="shape=tableRow;horizontal=0;startSize=0;swimlaneHead=0;swimlaneBody=0;strokeColor=inherit;top=0;left=0;bottom=0;right=0;collapsible=0;dropTarget=0;fillColor=none;points=[[0,0.5],[1,0.5]];portConstraint=eastwest;fontSize=16;" vertex="1" parent="NKexMCV8kcUPG6wa-SMc-2">
          <mxGeometry y="30" width="604.3711140950519" height="40" as="geometry" />
        </mxCell>
        <mxCell id="NKexMCV8kcUPG6wa-SMc-16" value="IdFuncionario" style="shape=partialRectangle;html=1;whiteSpace=wrap;connectable=0;strokeColor=inherit;overflow=hidden;fillColor=none;top=0;left=0;bottom=0;right=0;pointerEvents=1;fontSize=16;" vertex="1" parent="NKexMCV8kcUPG6wa-SMc-15">
          <mxGeometry width="102" height="40" as="geometry">
            <mxRectangle width="102" height="40" as="alternateBounds" />
          </mxGeometry>
        </mxCell>
        <mxCell id="NKexMCV8kcUPG6wa-SMc-17" value="Nome" style="shape=partialRectangle;html=1;whiteSpace=wrap;connectable=0;strokeColor=inherit;overflow=hidden;fillColor=none;top=0;left=0;bottom=0;right=0;pointerEvents=1;fontSize=16;" vertex="1" parent="NKexMCV8kcUPG6wa-SMc-15">
          <mxGeometry x="102" width="69" height="40" as="geometry">
            <mxRectangle width="69" height="40" as="alternateBounds" />
          </mxGeometry>
        </mxCell>
        <mxCell id="NKexMCV8kcUPG6wa-SMc-18" value="Endereco" style="shape=partialRectangle;html=1;whiteSpace=wrap;connectable=0;strokeColor=inherit;overflow=hidden;fillColor=none;top=0;left=0;bottom=0;right=0;pointerEvents=1;fontSize=16;" vertex="1" parent="NKexMCV8kcUPG6wa-SMc-15">
          <mxGeometry x="171" width="173" height="40" as="geometry">
            <mxRectangle width="173" height="40" as="alternateBounds" />
          </mxGeometry>
        </mxCell>
        <mxCell id="NKexMCV8kcUPG6wa-SMc-19" value="Telefone" style="shape=partialRectangle;html=1;whiteSpace=wrap;connectable=0;strokeColor=inherit;overflow=hidden;fillColor=none;top=0;left=0;bottom=0;right=0;pointerEvents=1;fontSize=16;" vertex="1" parent="NKexMCV8kcUPG6wa-SMc-15">
          <mxGeometry x="344" width="138" height="40" as="geometry">
            <mxRectangle width="138" height="40" as="alternateBounds" />
          </mxGeometry>
        </mxCell>
        <mxCell id="NKexMCV8kcUPG6wa-SMc-22" value="Cargo" style="shape=partialRectangle;html=1;whiteSpace=wrap;connectable=0;strokeColor=inherit;overflow=hidden;fillColor=none;top=0;left=0;bottom=0;right=0;pointerEvents=1;fontSize=16;" vertex="1" parent="NKexMCV8kcUPG6wa-SMc-15">
          <mxGeometry x="482" width="122" height="40" as="geometry">
            <mxRectangle width="122" height="40" as="alternateBounds" />
          </mxGeometry>
        </mxCell>
        <mxCell id="NKexMCV8kcUPG6wa-SMc-3" value="" style="shape=tableRow;horizontal=0;startSize=0;swimlaneHead=0;swimlaneBody=0;strokeColor=inherit;top=0;left=0;bottom=0;right=0;collapsible=0;dropTarget=0;fillColor=none;points=[[0,0.5],[1,0.5]];portConstraint=eastwest;fontSize=16;" vertex="1" parent="NKexMCV8kcUPG6wa-SMc-2">
          <mxGeometry y="70" width="604.3711140950519" height="72" as="geometry" />
        </mxCell>
        <mxCell id="NKexMCV8kcUPG6wa-SMc-4" value="1" style="shape=partialRectangle;html=1;whiteSpace=wrap;connectable=0;strokeColor=inherit;overflow=hidden;fillColor=none;top=0;left=0;bottom=0;right=0;pointerEvents=1;fontSize=16;" vertex="1" parent="NKexMCV8kcUPG6wa-SMc-3">
          <mxGeometry width="102" height="72" as="geometry">
            <mxRectangle width="102" height="72" as="alternateBounds" />
          </mxGeometry>
        </mxCell>
        <mxCell id="NKexMCV8kcUPG6wa-SMc-5" value="Artur" style="shape=partialRectangle;html=1;whiteSpace=wrap;connectable=0;strokeColor=inherit;overflow=hidden;fillColor=none;top=0;left=0;bottom=0;right=0;pointerEvents=1;fontSize=16;" vertex="1" parent="NKexMCV8kcUPG6wa-SMc-3">
          <mxGeometry x="102" width="69" height="72" as="geometry">
            <mxRectangle width="69" height="72" as="alternateBounds" />
          </mxGeometry>
        </mxCell>
        <mxCell id="NKexMCV8kcUPG6wa-SMc-6" value="R. Niterói, 180 - Centro, São Caetano do Sul - SP" style="shape=partialRectangle;html=1;whiteSpace=wrap;connectable=0;strokeColor=inherit;overflow=hidden;fillColor=none;top=0;left=0;bottom=0;right=0;pointerEvents=1;fontSize=16;" vertex="1" parent="NKexMCV8kcUPG6wa-SMc-3">
          <mxGeometry x="171" width="173" height="72" as="geometry">
            <mxRectangle width="173" height="72" as="alternateBounds" />
          </mxGeometry>
        </mxCell>
        <mxCell id="NKexMCV8kcUPG6wa-SMc-20" value="11 96143-8643&lt;br&gt;11 98234-7864" style="shape=partialRectangle;html=1;whiteSpace=wrap;connectable=0;strokeColor=inherit;overflow=hidden;fillColor=none;top=0;left=0;bottom=0;right=0;pointerEvents=1;fontSize=16;" vertex="1" parent="NKexMCV8kcUPG6wa-SMc-3">
          <mxGeometry x="344" width="138" height="72" as="geometry">
            <mxRectangle width="138" height="72" as="alternateBounds" />
          </mxGeometry>
        </mxCell>
        <mxCell id="NKexMCV8kcUPG6wa-SMc-23" value="Supervisor" style="shape=partialRectangle;html=1;whiteSpace=wrap;connectable=0;strokeColor=inherit;overflow=hidden;fillColor=none;top=0;left=0;bottom=0;right=0;pointerEvents=1;fontSize=16;" vertex="1" parent="NKexMCV8kcUPG6wa-SMc-3">
          <mxGeometry x="482" width="122" height="72" as="geometry">
            <mxRectangle width="122" height="72" as="alternateBounds" />
          </mxGeometry>
        </mxCell>
        <mxCell id="NKexMCV8kcUPG6wa-SMc-7" value="" style="shape=tableRow;horizontal=0;startSize=0;swimlaneHead=0;swimlaneBody=0;strokeColor=inherit;top=0;left=0;bottom=0;right=0;collapsible=0;dropTarget=0;fillColor=none;points=[[0,0.5],[1,0.5]];portConstraint=eastwest;fontSize=16;" vertex="1" parent="NKexMCV8kcUPG6wa-SMc-2">
          <mxGeometry y="142" width="604.3711140950519" height="89" as="geometry" />
        </mxCell>
        <mxCell id="NKexMCV8kcUPG6wa-SMc-8" value="2" style="shape=partialRectangle;html=1;whiteSpace=wrap;connectable=0;strokeColor=inherit;overflow=hidden;fillColor=none;top=0;left=0;bottom=0;right=0;pointerEvents=1;fontSize=16;" vertex="1" parent="NKexMCV8kcUPG6wa-SMc-7">
          <mxGeometry width="102" height="89" as="geometry">
            <mxRectangle width="102" height="89" as="alternateBounds" />
          </mxGeometry>
        </mxCell>
        <mxCell id="NKexMCV8kcUPG6wa-SMc-9" value="Carlos" style="shape=partialRectangle;html=1;whiteSpace=wrap;connectable=0;strokeColor=inherit;overflow=hidden;fillColor=none;top=0;left=0;bottom=0;right=0;pointerEvents=1;fontSize=16;" vertex="1" parent="NKexMCV8kcUPG6wa-SMc-7">
          <mxGeometry x="102" width="69" height="89" as="geometry">
            <mxRectangle width="69" height="89" as="alternateBounds" />
          </mxGeometry>
        </mxCell>
        <mxCell id="NKexMCV8kcUPG6wa-SMc-10" value="&lt;div style=&quot;&quot;&gt;&lt;span style=&quot;background-color: initial;&quot;&gt;R. Serafim Constantino, 51 - Centro, São Caetano do Sul - SP&lt;/span&gt;&lt;/div&gt;" style="shape=partialRectangle;html=1;whiteSpace=wrap;connectable=0;strokeColor=inherit;overflow=hidden;fillColor=none;top=0;left=0;bottom=0;right=0;pointerEvents=1;fontSize=16;align=center;" vertex="1" parent="NKexMCV8kcUPG6wa-SMc-7">
          <mxGeometry x="171" width="173" height="89" as="geometry">
            <mxRectangle width="173" height="89" as="alternateBounds" />
          </mxGeometry>
        </mxCell>
        <mxCell id="NKexMCV8kcUPG6wa-SMc-21" value="11 97835-4345&lt;br&gt;11 94354-5367" style="shape=partialRectangle;html=1;whiteSpace=wrap;connectable=0;strokeColor=inherit;overflow=hidden;fillColor=none;top=0;left=0;bottom=0;right=0;pointerEvents=1;fontSize=16;" vertex="1" parent="NKexMCV8kcUPG6wa-SMc-7">
          <mxGeometry x="344" width="138" height="89" as="geometry">
            <mxRectangle width="138" height="89" as="alternateBounds" />
          </mxGeometry>
        </mxCell>
        <mxCell id="NKexMCV8kcUPG6wa-SMc-24" value="Gerente" style="shape=partialRectangle;html=1;whiteSpace=wrap;connectable=0;strokeColor=inherit;overflow=hidden;fillColor=none;top=0;left=0;bottom=0;right=0;pointerEvents=1;fontSize=16;" vertex="1" parent="NKexMCV8kcUPG6wa-SMc-7">
          <mxGeometry x="482" width="122" height="89" as="geometry">
            <mxRectangle width="122" height="89" as="alternateBounds" />
          </mxGeometry>
        </mxCell>
        <mxCell id="NKexMCV8kcUPG6wa-SMc-28" value="- Não há grupos de atributos repetidos&lt;br&gt;&lt;div style=&quot;&quot;&gt;&lt;span style=&quot;background-color: initial;&quot;&gt;-&amp;nbsp; Possui somente valores atômicos&lt;/span&gt;&lt;/div&gt;&lt;div style=&quot;&quot;&gt;&lt;span style=&quot;background-color: initial;&quot;&gt;- Existe uma&amp;nbsp; chave primária&lt;/span&gt;&lt;/div&gt;&amp;nbsp;" style="text;html=1;align=left;verticalAlign=middle;resizable=0;points=[];autosize=1;strokeColor=none;fillColor=none;" vertex="1" parent="1">
          <mxGeometry x="1129" y="117" width="223" height="70" as="geometry" />
        </mxCell>
        <mxCell id="NKexMCV8kcUPG6wa-SMc-54" value="Estagiario" style="shape=table;startSize=30;container=1;collapsible=0;childLayout=tableLayout;strokeColor=default;fontSize=16;" vertex="1" parent="1">
          <mxGeometry x="68" y="556" width="755.1286214192708" height="231" as="geometry" />
        </mxCell>
        <mxCell id="NKexMCV8kcUPG6wa-SMc-55" style="shape=tableRow;horizontal=0;startSize=0;swimlaneHead=0;swimlaneBody=0;strokeColor=inherit;top=0;left=0;bottom=0;right=0;collapsible=0;dropTarget=0;fillColor=none;points=[[0,0.5],[1,0.5]];portConstraint=eastwest;fontSize=16;" vertex="1" parent="NKexMCV8kcUPG6wa-SMc-54">
          <mxGeometry y="30" width="755.1286214192708" height="40" as="geometry" />
        </mxCell>
        <mxCell id="NKexMCV8kcUPG6wa-SMc-56" value="IdEstagiario" style="shape=partialRectangle;html=1;whiteSpace=wrap;connectable=0;strokeColor=inherit;overflow=hidden;fillColor=none;top=0;left=0;bottom=0;right=0;pointerEvents=1;fontSize=16;" vertex="1" parent="NKexMCV8kcUPG6wa-SMc-55">
          <mxGeometry width="92" height="40" as="geometry">
            <mxRectangle width="92" height="40" as="alternateBounds" />
          </mxGeometry>
        </mxCell>
        <mxCell id="NKexMCV8kcUPG6wa-SMc-57" value="Nome" style="shape=partialRectangle;html=1;whiteSpace=wrap;connectable=0;strokeColor=inherit;overflow=hidden;fillColor=none;top=0;left=0;bottom=0;right=0;pointerEvents=1;fontSize=16;" vertex="1" parent="NKexMCV8kcUPG6wa-SMc-55">
          <mxGeometry x="92" width="67" height="40" as="geometry">
            <mxRectangle width="67" height="40" as="alternateBounds" />
          </mxGeometry>
        </mxCell>
        <mxCell id="NKexMCV8kcUPG6wa-SMc-58" value="Endereco" style="shape=partialRectangle;html=1;whiteSpace=wrap;connectable=0;strokeColor=inherit;overflow=hidden;fillColor=none;top=0;left=0;bottom=0;right=0;pointerEvents=1;fontSize=16;" vertex="1" parent="NKexMCV8kcUPG6wa-SMc-55">
          <mxGeometry x="159" width="171" height="40" as="geometry">
            <mxRectangle width="171" height="40" as="alternateBounds" />
          </mxGeometry>
        </mxCell>
        <mxCell id="NKexMCV8kcUPG6wa-SMc-59" value="Telefone" style="shape=partialRectangle;html=1;whiteSpace=wrap;connectable=0;strokeColor=inherit;overflow=hidden;fillColor=none;top=0;left=0;bottom=0;right=0;pointerEvents=1;fontSize=16;" vertex="1" parent="NKexMCV8kcUPG6wa-SMc-55">
          <mxGeometry x="330" width="130" height="40" as="geometry">
            <mxRectangle width="130" height="40" as="alternateBounds" />
          </mxGeometry>
        </mxCell>
        <mxCell id="NKexMCV8kcUPG6wa-SMc-60" value="IdFuncionario" style="shape=partialRectangle;html=1;whiteSpace=wrap;connectable=0;strokeColor=inherit;overflow=hidden;fillColor=none;top=0;left=0;bottom=0;right=0;pointerEvents=1;fontSize=16;" vertex="1" parent="NKexMCV8kcUPG6wa-SMc-55">
          <mxGeometry x="460" width="154" height="40" as="geometry">
            <mxRectangle width="154" height="40" as="alternateBounds" />
          </mxGeometry>
        </mxCell>
        <mxCell id="NKexMCV8kcUPG6wa-SMc-82" value="InstituicaoEnsino" style="shape=partialRectangle;html=1;whiteSpace=wrap;connectable=0;strokeColor=inherit;overflow=hidden;fillColor=none;top=0;left=0;bottom=0;right=0;pointerEvents=1;fontSize=16;" vertex="1" parent="NKexMCV8kcUPG6wa-SMc-55">
          <mxGeometry x="614" width="141" height="40" as="geometry">
            <mxRectangle width="141" height="40" as="alternateBounds" />
          </mxGeometry>
        </mxCell>
        <mxCell id="NKexMCV8kcUPG6wa-SMc-61" value="" style="shape=tableRow;horizontal=0;startSize=0;swimlaneHead=0;swimlaneBody=0;strokeColor=inherit;top=0;left=0;bottom=0;right=0;collapsible=0;dropTarget=0;fillColor=none;points=[[0,0.5],[1,0.5]];portConstraint=eastwest;fontSize=16;" vertex="1" parent="NKexMCV8kcUPG6wa-SMc-54">
          <mxGeometry y="70" width="755.1286214192708" height="72" as="geometry" />
        </mxCell>
        <mxCell id="NKexMCV8kcUPG6wa-SMc-62" value="1" style="shape=partialRectangle;html=1;whiteSpace=wrap;connectable=0;strokeColor=inherit;overflow=hidden;fillColor=none;top=0;left=0;bottom=0;right=0;pointerEvents=1;fontSize=16;" vertex="1" parent="NKexMCV8kcUPG6wa-SMc-61">
          <mxGeometry width="92" height="72" as="geometry">
            <mxRectangle width="92" height="72" as="alternateBounds" />
          </mxGeometry>
        </mxCell>
        <mxCell id="NKexMCV8kcUPG6wa-SMc-63" value="Eduardo" style="shape=partialRectangle;html=1;whiteSpace=wrap;connectable=0;strokeColor=inherit;overflow=hidden;fillColor=none;top=0;left=0;bottom=0;right=0;pointerEvents=1;fontSize=16;" vertex="1" parent="NKexMCV8kcUPG6wa-SMc-61">
          <mxGeometry x="92" width="67" height="72" as="geometry">
            <mxRectangle width="67" height="72" as="alternateBounds" />
          </mxGeometry>
        </mxCell>
        <mxCell id="NKexMCV8kcUPG6wa-SMc-64" value="&amp;nbsp;&lt;span style=&quot;color: rgb(32, 33, 36); font-family: arial, sans-serif; font-size: 14px; text-align: left; background-color: rgb(255, 255, 255);&quot; class=&quot;LrzXr&quot;&gt;Av. Santos Dumont, 300 - Ipiranguinha, Santo André - SP&lt;/span&gt;" style="shape=partialRectangle;html=1;whiteSpace=wrap;connectable=0;strokeColor=inherit;overflow=hidden;fillColor=none;top=0;left=0;bottom=0;right=0;pointerEvents=1;fontSize=16;" vertex="1" parent="NKexMCV8kcUPG6wa-SMc-61">
          <mxGeometry x="159" width="171" height="72" as="geometry">
            <mxRectangle width="171" height="72" as="alternateBounds" />
          </mxGeometry>
        </mxCell>
        <mxCell id="NKexMCV8kcUPG6wa-SMc-65" value="11 96543-8643&lt;br&gt;11 97834-7864" style="shape=partialRectangle;html=1;whiteSpace=wrap;connectable=0;strokeColor=inherit;overflow=hidden;fillColor=none;top=0;left=0;bottom=0;right=0;pointerEvents=1;fontSize=16;" vertex="1" parent="NKexMCV8kcUPG6wa-SMc-61">
          <mxGeometry x="330" width="130" height="72" as="geometry">
            <mxRectangle width="130" height="72" as="alternateBounds" />
          </mxGeometry>
        </mxCell>
        <mxCell id="NKexMCV8kcUPG6wa-SMc-66" value="1" style="shape=partialRectangle;html=1;whiteSpace=wrap;connectable=0;strokeColor=inherit;overflow=hidden;fillColor=none;top=0;left=0;bottom=0;right=0;pointerEvents=1;fontSize=16;" vertex="1" parent="NKexMCV8kcUPG6wa-SMc-61">
          <mxGeometry x="460" width="154" height="72" as="geometry">
            <mxRectangle width="154" height="72" as="alternateBounds" />
          </mxGeometry>
        </mxCell>
        <mxCell id="NKexMCV8kcUPG6wa-SMc-83" value="Senai" style="shape=partialRectangle;html=1;whiteSpace=wrap;connectable=0;strokeColor=inherit;overflow=hidden;fillColor=none;top=0;left=0;bottom=0;right=0;pointerEvents=1;fontSize=16;" vertex="1" parent="NKexMCV8kcUPG6wa-SMc-61">
          <mxGeometry x="614" width="141" height="72" as="geometry">
            <mxRectangle width="141" height="72" as="alternateBounds" />
          </mxGeometry>
        </mxCell>
        <mxCell id="NKexMCV8kcUPG6wa-SMc-67" value="" style="shape=tableRow;horizontal=0;startSize=0;swimlaneHead=0;swimlaneBody=0;strokeColor=inherit;top=0;left=0;bottom=0;right=0;collapsible=0;dropTarget=0;fillColor=none;points=[[0,0.5],[1,0.5]];portConstraint=eastwest;fontSize=16;" vertex="1" parent="NKexMCV8kcUPG6wa-SMc-54">
          <mxGeometry y="142" width="755.1286214192708" height="89" as="geometry" />
        </mxCell>
        <mxCell id="NKexMCV8kcUPG6wa-SMc-68" value="2" style="shape=partialRectangle;html=1;whiteSpace=wrap;connectable=0;strokeColor=inherit;overflow=hidden;fillColor=none;top=0;left=0;bottom=0;right=0;pointerEvents=1;fontSize=16;" vertex="1" parent="NKexMCV8kcUPG6wa-SMc-67">
          <mxGeometry width="92" height="89" as="geometry">
            <mxRectangle width="92" height="89" as="alternateBounds" />
          </mxGeometry>
        </mxCell>
        <mxCell id="NKexMCV8kcUPG6wa-SMc-69" value="Felipe" style="shape=partialRectangle;html=1;whiteSpace=wrap;connectable=0;strokeColor=inherit;overflow=hidden;fillColor=none;top=0;left=0;bottom=0;right=0;pointerEvents=1;fontSize=16;align=center;" vertex="1" parent="NKexMCV8kcUPG6wa-SMc-67">
          <mxGeometry x="92" width="67" height="89" as="geometry">
            <mxRectangle width="67" height="89" as="alternateBounds" />
          </mxGeometry>
        </mxCell>
        <mxCell id="NKexMCV8kcUPG6wa-SMc-70" value="&lt;div style=&quot;&quot;&gt;&lt;span style=&quot;background-color: initial;&quot;&gt;R. Serafim Constantino, 62 - Centro, São Caetano do Sul - SP&lt;/span&gt;&lt;/div&gt;" style="shape=partialRectangle;html=1;whiteSpace=wrap;connectable=0;strokeColor=inherit;overflow=hidden;fillColor=none;top=0;left=0;bottom=0;right=0;pointerEvents=1;fontSize=16;align=center;" vertex="1" parent="NKexMCV8kcUPG6wa-SMc-67">
          <mxGeometry x="159" width="171" height="89" as="geometry">
            <mxRectangle width="171" height="89" as="alternateBounds" />
          </mxGeometry>
        </mxCell>
        <mxCell id="NKexMCV8kcUPG6wa-SMc-71" value="11 93635-4345&lt;br&gt;11 94654-5367" style="shape=partialRectangle;html=1;whiteSpace=wrap;connectable=0;strokeColor=inherit;overflow=hidden;fillColor=none;top=0;left=0;bottom=0;right=0;pointerEvents=1;fontSize=16;" vertex="1" parent="NKexMCV8kcUPG6wa-SMc-67">
          <mxGeometry x="330" width="130" height="89" as="geometry">
            <mxRectangle width="130" height="89" as="alternateBounds" />
          </mxGeometry>
        </mxCell>
        <mxCell id="NKexMCV8kcUPG6wa-SMc-72" value="2" style="shape=partialRectangle;html=1;whiteSpace=wrap;connectable=0;strokeColor=inherit;overflow=hidden;fillColor=none;top=0;left=0;bottom=0;right=0;pointerEvents=1;fontSize=16;" vertex="1" parent="NKexMCV8kcUPG6wa-SMc-67">
          <mxGeometry x="460" width="154" height="89" as="geometry">
            <mxRectangle width="154" height="89" as="alternateBounds" />
          </mxGeometry>
        </mxCell>
        <mxCell id="NKexMCV8kcUPG6wa-SMc-84" value="Etec" style="shape=partialRectangle;html=1;whiteSpace=wrap;connectable=0;strokeColor=inherit;overflow=hidden;fillColor=none;top=0;left=0;bottom=0;right=0;pointerEvents=1;fontSize=16;" vertex="1" parent="NKexMCV8kcUPG6wa-SMc-67">
          <mxGeometry x="614" width="141" height="89" as="geometry">
            <mxRectangle width="141" height="89" as="alternateBounds" />
          </mxGeometry>
        </mxCell>
        <mxCell id="NKexMCV8kcUPG6wa-SMc-85" value="Funcionarios" style="shape=table;startSize=30;container=1;collapsible=0;childLayout=tableLayout;strokeColor=default;fontSize=16;" vertex="1" parent="1">
          <mxGeometry x="827" y="252" width="742.75" height="231" as="geometry" />
        </mxCell>
        <mxCell id="NKexMCV8kcUPG6wa-SMc-86" style="shape=tableRow;horizontal=0;startSize=0;swimlaneHead=0;swimlaneBody=0;strokeColor=inherit;top=0;left=0;bottom=0;right=0;collapsible=0;dropTarget=0;fillColor=none;points=[[0,0.5],[1,0.5]];portConstraint=eastwest;fontSize=16;" vertex="1" parent="NKexMCV8kcUPG6wa-SMc-85">
          <mxGeometry y="30" width="742.75" height="40" as="geometry" />
        </mxCell>
        <mxCell id="NKexMCV8kcUPG6wa-SMc-87" value="IdFuncionario" style="shape=partialRectangle;html=1;whiteSpace=wrap;connectable=0;strokeColor=inherit;overflow=hidden;fillColor=none;top=0;left=0;bottom=0;right=0;pointerEvents=1;fontSize=16;" vertex="1" parent="NKexMCV8kcUPG6wa-SMc-86">
          <mxGeometry width="105" height="40" as="geometry">
            <mxRectangle width="105" height="40" as="alternateBounds" />
          </mxGeometry>
        </mxCell>
        <mxCell id="NKexMCV8kcUPG6wa-SMc-88" value="Nome" style="shape=partialRectangle;html=1;whiteSpace=wrap;connectable=0;strokeColor=inherit;overflow=hidden;fillColor=none;top=0;left=0;bottom=0;right=0;pointerEvents=1;fontSize=16;" vertex="1" parent="NKexMCV8kcUPG6wa-SMc-86">
          <mxGeometry x="105" width="72" height="40" as="geometry">
            <mxRectangle width="72" height="40" as="alternateBounds" />
          </mxGeometry>
        </mxCell>
        <mxCell id="NKexMCV8kcUPG6wa-SMc-89" value="Endereco" style="shape=partialRectangle;html=1;whiteSpace=wrap;connectable=0;strokeColor=inherit;overflow=hidden;fillColor=none;top=0;left=0;bottom=0;right=0;pointerEvents=1;fontSize=16;" vertex="1" parent="NKexMCV8kcUPG6wa-SMc-86">
          <mxGeometry x="177" width="129" height="40" as="geometry">
            <mxRectangle width="129" height="40" as="alternateBounds" />
          </mxGeometry>
        </mxCell>
        <mxCell id="NKexMCV8kcUPG6wa-SMc-90" value="Bairro" style="shape=partialRectangle;html=1;whiteSpace=wrap;connectable=0;strokeColor=inherit;overflow=hidden;fillColor=none;top=0;left=0;bottom=0;right=0;pointerEvents=1;fontSize=16;" vertex="1" parent="NKexMCV8kcUPG6wa-SMc-86">
          <mxGeometry x="306" width="119" height="40" as="geometry">
            <mxRectangle width="119" height="40" as="alternateBounds" />
          </mxGeometry>
        </mxCell>
        <mxCell id="NKexMCV8kcUPG6wa-SMc-91" value="Municipio" style="shape=partialRectangle;html=1;whiteSpace=wrap;connectable=0;strokeColor=inherit;overflow=hidden;fillColor=none;top=0;left=0;bottom=0;right=0;pointerEvents=1;fontSize=16;" vertex="1" parent="NKexMCV8kcUPG6wa-SMc-86">
          <mxGeometry x="425" width="159" height="40" as="geometry">
            <mxRectangle width="159" height="40" as="alternateBounds" />
          </mxGeometry>
        </mxCell>
        <mxCell id="NKexMCV8kcUPG6wa-SMc-142" value="Cargo" style="shape=partialRectangle;html=1;whiteSpace=wrap;connectable=0;strokeColor=inherit;overflow=hidden;fillColor=none;top=0;left=0;bottom=0;right=0;pointerEvents=1;fontSize=16;" vertex="1" parent="NKexMCV8kcUPG6wa-SMc-86">
          <mxGeometry x="584" width="159" height="40" as="geometry">
            <mxRectangle width="159" height="40" as="alternateBounds" />
          </mxGeometry>
        </mxCell>
        <mxCell id="NKexMCV8kcUPG6wa-SMc-92" value="" style="shape=tableRow;horizontal=0;startSize=0;swimlaneHead=0;swimlaneBody=0;strokeColor=inherit;top=0;left=0;bottom=0;right=0;collapsible=0;dropTarget=0;fillColor=none;points=[[0,0.5],[1,0.5]];portConstraint=eastwest;fontSize=16;" vertex="1" parent="NKexMCV8kcUPG6wa-SMc-85">
          <mxGeometry y="70" width="742.75" height="72" as="geometry" />
        </mxCell>
        <mxCell id="NKexMCV8kcUPG6wa-SMc-93" value="1" style="shape=partialRectangle;html=1;whiteSpace=wrap;connectable=0;strokeColor=inherit;overflow=hidden;fillColor=none;top=0;left=0;bottom=0;right=0;pointerEvents=1;fontSize=16;" vertex="1" parent="NKexMCV8kcUPG6wa-SMc-92">
          <mxGeometry width="105" height="72" as="geometry">
            <mxRectangle width="105" height="72" as="alternateBounds" />
          </mxGeometry>
        </mxCell>
        <mxCell id="NKexMCV8kcUPG6wa-SMc-94" value="Artur" style="shape=partialRectangle;html=1;whiteSpace=wrap;connectable=0;strokeColor=inherit;overflow=hidden;fillColor=none;top=0;left=0;bottom=0;right=0;pointerEvents=1;fontSize=16;" vertex="1" parent="NKexMCV8kcUPG6wa-SMc-92">
          <mxGeometry x="105" width="72" height="72" as="geometry">
            <mxRectangle width="72" height="72" as="alternateBounds" />
          </mxGeometry>
        </mxCell>
        <mxCell id="NKexMCV8kcUPG6wa-SMc-95" value="R. Niterói, 180&amp;nbsp;" style="shape=partialRectangle;html=1;whiteSpace=wrap;connectable=0;strokeColor=inherit;overflow=hidden;fillColor=none;top=0;left=0;bottom=0;right=0;pointerEvents=1;fontSize=16;" vertex="1" parent="NKexMCV8kcUPG6wa-SMc-92">
          <mxGeometry x="177" width="129" height="72" as="geometry">
            <mxRectangle width="129" height="72" as="alternateBounds" />
          </mxGeometry>
        </mxCell>
        <mxCell id="NKexMCV8kcUPG6wa-SMc-96" value="Centro" style="shape=partialRectangle;html=1;whiteSpace=wrap;connectable=0;strokeColor=inherit;overflow=hidden;fillColor=none;top=0;left=0;bottom=0;right=0;pointerEvents=1;fontSize=16;" vertex="1" parent="NKexMCV8kcUPG6wa-SMc-92">
          <mxGeometry x="306" width="119" height="72" as="geometry">
            <mxRectangle width="119" height="72" as="alternateBounds" />
          </mxGeometry>
        </mxCell>
        <mxCell id="NKexMCV8kcUPG6wa-SMc-97" value="São Caetano do Sul - SP" style="shape=partialRectangle;html=1;whiteSpace=wrap;connectable=0;strokeColor=inherit;overflow=hidden;fillColor=none;top=0;left=0;bottom=0;right=0;pointerEvents=1;fontSize=16;" vertex="1" parent="NKexMCV8kcUPG6wa-SMc-92">
          <mxGeometry x="425" width="159" height="72" as="geometry">
            <mxRectangle width="159" height="72" as="alternateBounds" />
          </mxGeometry>
        </mxCell>
        <mxCell id="NKexMCV8kcUPG6wa-SMc-143" value="Supervisor" style="shape=partialRectangle;html=1;whiteSpace=wrap;connectable=0;strokeColor=inherit;overflow=hidden;fillColor=none;top=0;left=0;bottom=0;right=0;pointerEvents=1;fontSize=16;" vertex="1" parent="NKexMCV8kcUPG6wa-SMc-92">
          <mxGeometry x="584" width="159" height="72" as="geometry">
            <mxRectangle width="159" height="72" as="alternateBounds" />
          </mxGeometry>
        </mxCell>
        <mxCell id="NKexMCV8kcUPG6wa-SMc-98" value="" style="shape=tableRow;horizontal=0;startSize=0;swimlaneHead=0;swimlaneBody=0;strokeColor=inherit;top=0;left=0;bottom=0;right=0;collapsible=0;dropTarget=0;fillColor=none;points=[[0,0.5],[1,0.5]];portConstraint=eastwest;fontSize=16;" vertex="1" parent="NKexMCV8kcUPG6wa-SMc-85">
          <mxGeometry y="142" width="742.75" height="89" as="geometry" />
        </mxCell>
        <mxCell id="NKexMCV8kcUPG6wa-SMc-99" value="2" style="shape=partialRectangle;html=1;whiteSpace=wrap;connectable=0;strokeColor=inherit;overflow=hidden;fillColor=none;top=0;left=0;bottom=0;right=0;pointerEvents=1;fontSize=16;" vertex="1" parent="NKexMCV8kcUPG6wa-SMc-98">
          <mxGeometry width="105" height="89" as="geometry">
            <mxRectangle width="105" height="89" as="alternateBounds" />
          </mxGeometry>
        </mxCell>
        <mxCell id="NKexMCV8kcUPG6wa-SMc-100" value="Carlos" style="shape=partialRectangle;html=1;whiteSpace=wrap;connectable=0;strokeColor=inherit;overflow=hidden;fillColor=none;top=0;left=0;bottom=0;right=0;pointerEvents=1;fontSize=16;" vertex="1" parent="NKexMCV8kcUPG6wa-SMc-98">
          <mxGeometry x="105" width="72" height="89" as="geometry">
            <mxRectangle width="72" height="89" as="alternateBounds" />
          </mxGeometry>
        </mxCell>
        <mxCell id="NKexMCV8kcUPG6wa-SMc-101" value="&lt;div style=&quot;&quot;&gt;&lt;span style=&quot;background-color: initial;&quot;&gt;R. Serafim Constantino, 51&amp;nbsp;&amp;nbsp;&lt;/span&gt;&lt;/div&gt;" style="shape=partialRectangle;html=1;whiteSpace=wrap;connectable=0;strokeColor=inherit;overflow=hidden;fillColor=none;top=0;left=0;bottom=0;right=0;pointerEvents=1;fontSize=16;align=center;" vertex="1" parent="NKexMCV8kcUPG6wa-SMc-98">
          <mxGeometry x="177" width="129" height="89" as="geometry">
            <mxRectangle width="129" height="89" as="alternateBounds" />
          </mxGeometry>
        </mxCell>
        <mxCell id="NKexMCV8kcUPG6wa-SMc-102" value="Centro" style="shape=partialRectangle;html=1;whiteSpace=wrap;connectable=0;strokeColor=inherit;overflow=hidden;fillColor=none;top=0;left=0;bottom=0;right=0;pointerEvents=1;fontSize=16;" vertex="1" parent="NKexMCV8kcUPG6wa-SMc-98">
          <mxGeometry x="306" width="119" height="89" as="geometry">
            <mxRectangle width="119" height="89" as="alternateBounds" />
          </mxGeometry>
        </mxCell>
        <mxCell id="NKexMCV8kcUPG6wa-SMc-103" value="São Caetano do Sul - SP" style="shape=partialRectangle;html=1;whiteSpace=wrap;connectable=0;strokeColor=inherit;overflow=hidden;fillColor=none;top=0;left=0;bottom=0;right=0;pointerEvents=1;fontSize=16;" vertex="1" parent="NKexMCV8kcUPG6wa-SMc-98">
          <mxGeometry x="425" width="159" height="89" as="geometry">
            <mxRectangle width="159" height="89" as="alternateBounds" />
          </mxGeometry>
        </mxCell>
        <mxCell id="NKexMCV8kcUPG6wa-SMc-144" value="Gerente" style="shape=partialRectangle;html=1;whiteSpace=wrap;connectable=0;strokeColor=inherit;overflow=hidden;fillColor=none;top=0;left=0;bottom=0;right=0;pointerEvents=1;fontSize=16;" vertex="1" parent="NKexMCV8kcUPG6wa-SMc-98">
          <mxGeometry x="584" width="159" height="89" as="geometry">
            <mxRectangle width="159" height="89" as="alternateBounds" />
          </mxGeometry>
        </mxCell>
        <mxCell id="NKexMCV8kcUPG6wa-SMc-104" value="Telefone" style="shape=table;startSize=30;container=1;collapsible=0;childLayout=tableLayout;strokeColor=default;fontSize=16;" vertex="1" parent="1">
          <mxGeometry x="1738" y="252.5" width="226.28765869140614" height="230" as="geometry" />
        </mxCell>
        <mxCell id="NKexMCV8kcUPG6wa-SMc-105" value="" style="shape=tableRow;horizontal=0;startSize=0;swimlaneHead=0;swimlaneBody=0;strokeColor=inherit;top=0;left=0;bottom=0;right=0;collapsible=0;dropTarget=0;fillColor=none;points=[[0,0.5],[1,0.5]];portConstraint=eastwest;fontSize=16;" vertex="1" parent="NKexMCV8kcUPG6wa-SMc-104">
          <mxGeometry y="30" width="226.28765869140614" height="40" as="geometry" />
        </mxCell>
        <mxCell id="NKexMCV8kcUPG6wa-SMc-106" value="IdFuncionario" style="shape=partialRectangle;html=1;whiteSpace=wrap;connectable=0;strokeColor=inherit;overflow=hidden;fillColor=none;top=0;left=0;bottom=0;right=0;pointerEvents=1;fontSize=16;" vertex="1" parent="NKexMCV8kcUPG6wa-SMc-105">
          <mxGeometry width="110" height="40" as="geometry">
            <mxRectangle width="110" height="40" as="alternateBounds" />
          </mxGeometry>
        </mxCell>
        <mxCell id="NKexMCV8kcUPG6wa-SMc-107" value="Numero" style="shape=partialRectangle;html=1;whiteSpace=wrap;connectable=0;strokeColor=inherit;overflow=hidden;fillColor=none;top=0;left=0;bottom=0;right=0;pointerEvents=1;fontSize=16;" vertex="1" parent="NKexMCV8kcUPG6wa-SMc-105">
          <mxGeometry x="110" width="116" height="40" as="geometry">
            <mxRectangle width="116" height="40" as="alternateBounds" />
          </mxGeometry>
        </mxCell>
        <mxCell id="NKexMCV8kcUPG6wa-SMc-109" value="" style="shape=tableRow;horizontal=0;startSize=0;swimlaneHead=0;swimlaneBody=0;strokeColor=inherit;top=0;left=0;bottom=0;right=0;collapsible=0;dropTarget=0;fillColor=none;points=[[0,0.5],[1,0.5]];portConstraint=eastwest;fontSize=16;" vertex="1" parent="NKexMCV8kcUPG6wa-SMc-104">
          <mxGeometry y="70" width="226.28765869140614" height="40" as="geometry" />
        </mxCell>
        <mxCell id="NKexMCV8kcUPG6wa-SMc-110" value="1" style="shape=partialRectangle;html=1;whiteSpace=wrap;connectable=0;strokeColor=inherit;overflow=hidden;fillColor=none;top=0;left=0;bottom=0;right=0;pointerEvents=1;fontSize=16;" vertex="1" parent="NKexMCV8kcUPG6wa-SMc-109">
          <mxGeometry width="110" height="40" as="geometry">
            <mxRectangle width="110" height="40" as="alternateBounds" />
          </mxGeometry>
        </mxCell>
        <mxCell id="NKexMCV8kcUPG6wa-SMc-111" value="11 96143-8643" style="shape=partialRectangle;html=1;whiteSpace=wrap;connectable=0;strokeColor=inherit;overflow=hidden;fillColor=none;top=0;left=0;bottom=0;right=0;pointerEvents=1;fontSize=16;" vertex="1" parent="NKexMCV8kcUPG6wa-SMc-109">
          <mxGeometry x="110" width="116" height="40" as="geometry">
            <mxRectangle width="116" height="40" as="alternateBounds" />
          </mxGeometry>
        </mxCell>
        <mxCell id="NKexMCV8kcUPG6wa-SMc-113" value="" style="shape=tableRow;horizontal=0;startSize=0;swimlaneHead=0;swimlaneBody=0;strokeColor=inherit;top=0;left=0;bottom=0;right=0;collapsible=0;dropTarget=0;fillColor=none;points=[[0,0.5],[1,0.5]];portConstraint=eastwest;fontSize=16;" vertex="1" parent="NKexMCV8kcUPG6wa-SMc-104">
          <mxGeometry y="110" width="226.28765869140614" height="40" as="geometry" />
        </mxCell>
        <mxCell id="NKexMCV8kcUPG6wa-SMc-114" value="2" style="shape=partialRectangle;html=1;whiteSpace=wrap;connectable=0;strokeColor=inherit;overflow=hidden;fillColor=none;top=0;left=0;bottom=0;right=0;pointerEvents=1;fontSize=16;" vertex="1" parent="NKexMCV8kcUPG6wa-SMc-113">
          <mxGeometry width="110" height="40" as="geometry">
            <mxRectangle width="110" height="40" as="alternateBounds" />
          </mxGeometry>
        </mxCell>
        <mxCell id="NKexMCV8kcUPG6wa-SMc-115" value="&lt;span style=&quot;color: rgb(0, 0, 0); font-family: Helvetica; font-size: 16px; font-style: normal; font-variant-ligatures: normal; font-variant-caps: normal; font-weight: 400; letter-spacing: normal; orphans: 2; text-align: center; text-indent: 0px; text-transform: none; widows: 2; word-spacing: 0px; -webkit-text-stroke-width: 0px; background-color: rgb(251, 251, 251); text-decoration-thickness: initial; text-decoration-style: initial; text-decoration-color: initial; float: none; display: inline !important;&quot;&gt;11 97835-4345&lt;/span&gt;" style="shape=partialRectangle;html=1;whiteSpace=wrap;connectable=0;strokeColor=inherit;overflow=hidden;fillColor=none;top=0;left=0;bottom=0;right=0;pointerEvents=1;fontSize=16;" vertex="1" parent="NKexMCV8kcUPG6wa-SMc-113">
          <mxGeometry x="110" width="116" height="40" as="geometry">
            <mxRectangle width="116" height="40" as="alternateBounds" />
          </mxGeometry>
        </mxCell>
        <mxCell id="NKexMCV8kcUPG6wa-SMc-117" style="shape=tableRow;horizontal=0;startSize=0;swimlaneHead=0;swimlaneBody=0;strokeColor=inherit;top=0;left=0;bottom=0;right=0;collapsible=0;dropTarget=0;fillColor=none;points=[[0,0.5],[1,0.5]];portConstraint=eastwest;fontSize=16;" vertex="1" parent="NKexMCV8kcUPG6wa-SMc-104">
          <mxGeometry y="150" width="226.28765869140614" height="40" as="geometry" />
        </mxCell>
        <mxCell id="NKexMCV8kcUPG6wa-SMc-118" value="2" style="shape=partialRectangle;html=1;whiteSpace=wrap;connectable=0;strokeColor=inherit;overflow=hidden;fillColor=none;top=0;left=0;bottom=0;right=0;pointerEvents=1;fontSize=16;" vertex="1" parent="NKexMCV8kcUPG6wa-SMc-117">
          <mxGeometry width="110" height="40" as="geometry">
            <mxRectangle width="110" height="40" as="alternateBounds" />
          </mxGeometry>
        </mxCell>
        <mxCell id="NKexMCV8kcUPG6wa-SMc-119" value="11 94354-5367" style="shape=partialRectangle;html=1;whiteSpace=wrap;connectable=0;strokeColor=inherit;overflow=hidden;fillColor=none;top=0;left=0;bottom=0;right=0;pointerEvents=1;fontSize=16;" vertex="1" parent="NKexMCV8kcUPG6wa-SMc-117">
          <mxGeometry x="110" width="116" height="40" as="geometry">
            <mxRectangle width="116" height="40" as="alternateBounds" />
          </mxGeometry>
        </mxCell>
        <mxCell id="NKexMCV8kcUPG6wa-SMc-120" style="shape=tableRow;horizontal=0;startSize=0;swimlaneHead=0;swimlaneBody=0;strokeColor=inherit;top=0;left=0;bottom=0;right=0;collapsible=0;dropTarget=0;fillColor=none;points=[[0,0.5],[1,0.5]];portConstraint=eastwest;fontSize=16;" vertex="1" parent="NKexMCV8kcUPG6wa-SMc-104">
          <mxGeometry y="190" width="226.28765869140614" height="40" as="geometry" />
        </mxCell>
        <mxCell id="NKexMCV8kcUPG6wa-SMc-121" value="1" style="shape=partialRectangle;html=1;whiteSpace=wrap;connectable=0;strokeColor=inherit;overflow=hidden;fillColor=none;top=0;left=0;bottom=0;right=0;pointerEvents=1;fontSize=16;" vertex="1" parent="NKexMCV8kcUPG6wa-SMc-120">
          <mxGeometry width="110" height="40" as="geometry">
            <mxRectangle width="110" height="40" as="alternateBounds" />
          </mxGeometry>
        </mxCell>
        <mxCell id="NKexMCV8kcUPG6wa-SMc-122" value="11 98234-7864" style="shape=partialRectangle;html=1;whiteSpace=wrap;connectable=0;strokeColor=inherit;overflow=hidden;fillColor=none;top=0;left=0;bottom=0;right=0;pointerEvents=1;fontSize=16;" vertex="1" parent="NKexMCV8kcUPG6wa-SMc-120">
          <mxGeometry x="110" width="116" height="40" as="geometry">
            <mxRectangle width="116" height="40" as="alternateBounds" />
          </mxGeometry>
        </mxCell>
        <mxCell id="NKexMCV8kcUPG6wa-SMc-123" value="Estagiario" style="shape=table;startSize=30;container=1;collapsible=0;childLayout=tableLayout;strokeColor=default;fontSize=16;" vertex="1" parent="1">
          <mxGeometry x="895" y="556" width="583.75" height="231" as="geometry" />
        </mxCell>
        <mxCell id="NKexMCV8kcUPG6wa-SMc-124" style="shape=tableRow;horizontal=0;startSize=0;swimlaneHead=0;swimlaneBody=0;strokeColor=inherit;top=0;left=0;bottom=0;right=0;collapsible=0;dropTarget=0;fillColor=none;points=[[0,0.5],[1,0.5]];portConstraint=eastwest;fontSize=16;" vertex="1" parent="NKexMCV8kcUPG6wa-SMc-123">
          <mxGeometry y="30" width="583.75" height="40" as="geometry" />
        </mxCell>
        <mxCell id="NKexMCV8kcUPG6wa-SMc-125" value="IdEstagiario" style="shape=partialRectangle;html=1;whiteSpace=wrap;connectable=0;strokeColor=inherit;overflow=hidden;fillColor=none;top=0;left=0;bottom=0;right=0;pointerEvents=1;fontSize=16;" vertex="1" parent="NKexMCV8kcUPG6wa-SMc-124">
          <mxGeometry width="105" height="40" as="geometry">
            <mxRectangle width="105" height="40" as="alternateBounds" />
          </mxGeometry>
        </mxCell>
        <mxCell id="NKexMCV8kcUPG6wa-SMc-126" value="Nome" style="shape=partialRectangle;html=1;whiteSpace=wrap;connectable=0;strokeColor=inherit;overflow=hidden;fillColor=none;top=0;left=0;bottom=0;right=0;pointerEvents=1;fontSize=16;" vertex="1" parent="NKexMCV8kcUPG6wa-SMc-124">
          <mxGeometry x="105" width="72" height="40" as="geometry">
            <mxRectangle width="72" height="40" as="alternateBounds" />
          </mxGeometry>
        </mxCell>
        <mxCell id="NKexMCV8kcUPG6wa-SMc-127" value="Endereco" style="shape=partialRectangle;html=1;whiteSpace=wrap;connectable=0;strokeColor=inherit;overflow=hidden;fillColor=none;top=0;left=0;bottom=0;right=0;pointerEvents=1;fontSize=16;" vertex="1" parent="NKexMCV8kcUPG6wa-SMc-124">
          <mxGeometry x="177" width="129" height="40" as="geometry">
            <mxRectangle width="129" height="40" as="alternateBounds" />
          </mxGeometry>
        </mxCell>
        <mxCell id="NKexMCV8kcUPG6wa-SMc-128" value="Bairro" style="shape=partialRectangle;html=1;whiteSpace=wrap;connectable=0;strokeColor=inherit;overflow=hidden;fillColor=none;top=0;left=0;bottom=0;right=0;pointerEvents=1;fontSize=16;" vertex="1" parent="NKexMCV8kcUPG6wa-SMc-124">
          <mxGeometry x="306" width="119" height="40" as="geometry">
            <mxRectangle width="119" height="40" as="alternateBounds" />
          </mxGeometry>
        </mxCell>
        <mxCell id="NKexMCV8kcUPG6wa-SMc-129" value="Municipio" style="shape=partialRectangle;html=1;whiteSpace=wrap;connectable=0;strokeColor=inherit;overflow=hidden;fillColor=none;top=0;left=0;bottom=0;right=0;pointerEvents=1;fontSize=16;" vertex="1" parent="NKexMCV8kcUPG6wa-SMc-124">
          <mxGeometry x="425" width="159" height="40" as="geometry">
            <mxRectangle width="159" height="40" as="alternateBounds" />
          </mxGeometry>
        </mxCell>
        <mxCell id="NKexMCV8kcUPG6wa-SMc-130" value="" style="shape=tableRow;horizontal=0;startSize=0;swimlaneHead=0;swimlaneBody=0;strokeColor=inherit;top=0;left=0;bottom=0;right=0;collapsible=0;dropTarget=0;fillColor=none;points=[[0,0.5],[1,0.5]];portConstraint=eastwest;fontSize=16;" vertex="1" parent="NKexMCV8kcUPG6wa-SMc-123">
          <mxGeometry y="70" width="583.75" height="72" as="geometry" />
        </mxCell>
        <mxCell id="NKexMCV8kcUPG6wa-SMc-131" value="1" style="shape=partialRectangle;html=1;whiteSpace=wrap;connectable=0;strokeColor=inherit;overflow=hidden;fillColor=none;top=0;left=0;bottom=0;right=0;pointerEvents=1;fontSize=16;" vertex="1" parent="NKexMCV8kcUPG6wa-SMc-130">
          <mxGeometry width="105" height="72" as="geometry">
            <mxRectangle width="105" height="72" as="alternateBounds" />
          </mxGeometry>
        </mxCell>
        <mxCell id="NKexMCV8kcUPG6wa-SMc-132" value="Artur" style="shape=partialRectangle;html=1;whiteSpace=wrap;connectable=0;strokeColor=inherit;overflow=hidden;fillColor=none;top=0;left=0;bottom=0;right=0;pointerEvents=1;fontSize=16;" vertex="1" parent="NKexMCV8kcUPG6wa-SMc-130">
          <mxGeometry x="105" width="72" height="72" as="geometry">
            <mxRectangle width="72" height="72" as="alternateBounds" />
          </mxGeometry>
        </mxCell>
        <mxCell id="NKexMCV8kcUPG6wa-SMc-133" value="&amp;nbsp;Av. Santos Dumont, 300&amp;nbsp;&amp;nbsp;" style="shape=partialRectangle;html=1;whiteSpace=wrap;connectable=0;strokeColor=inherit;overflow=hidden;fillColor=none;top=0;left=0;bottom=0;right=0;pointerEvents=1;fontSize=16;" vertex="1" parent="NKexMCV8kcUPG6wa-SMc-130">
          <mxGeometry x="177" width="129" height="72" as="geometry">
            <mxRectangle width="129" height="72" as="alternateBounds" />
          </mxGeometry>
        </mxCell>
        <mxCell id="NKexMCV8kcUPG6wa-SMc-134" value="Ipiranguinha" style="shape=partialRectangle;html=1;whiteSpace=wrap;connectable=0;strokeColor=inherit;overflow=hidden;fillColor=none;top=0;left=0;bottom=0;right=0;pointerEvents=1;fontSize=16;" vertex="1" parent="NKexMCV8kcUPG6wa-SMc-130">
          <mxGeometry x="306" width="119" height="72" as="geometry">
            <mxRectangle width="119" height="72" as="alternateBounds" />
          </mxGeometry>
        </mxCell>
        <mxCell id="NKexMCV8kcUPG6wa-SMc-135" value="Santo André - SP," style="shape=partialRectangle;html=1;whiteSpace=wrap;connectable=0;strokeColor=inherit;overflow=hidden;fillColor=none;top=0;left=0;bottom=0;right=0;pointerEvents=1;fontSize=16;" vertex="1" parent="NKexMCV8kcUPG6wa-SMc-130">
          <mxGeometry x="425" width="159" height="72" as="geometry">
            <mxRectangle width="159" height="72" as="alternateBounds" />
          </mxGeometry>
        </mxCell>
        <mxCell id="NKexMCV8kcUPG6wa-SMc-136" value="" style="shape=tableRow;horizontal=0;startSize=0;swimlaneHead=0;swimlaneBody=0;strokeColor=inherit;top=0;left=0;bottom=0;right=0;collapsible=0;dropTarget=0;fillColor=none;points=[[0,0.5],[1,0.5]];portConstraint=eastwest;fontSize=16;" vertex="1" parent="NKexMCV8kcUPG6wa-SMc-123">
          <mxGeometry y="142" width="583.75" height="89" as="geometry" />
        </mxCell>
        <mxCell id="NKexMCV8kcUPG6wa-SMc-137" value="2" style="shape=partialRectangle;html=1;whiteSpace=wrap;connectable=0;strokeColor=inherit;overflow=hidden;fillColor=none;top=0;left=0;bottom=0;right=0;pointerEvents=1;fontSize=16;" vertex="1" parent="NKexMCV8kcUPG6wa-SMc-136">
          <mxGeometry width="105" height="89" as="geometry">
            <mxRectangle width="105" height="89" as="alternateBounds" />
          </mxGeometry>
        </mxCell>
        <mxCell id="NKexMCV8kcUPG6wa-SMc-138" value="Carlos" style="shape=partialRectangle;html=1;whiteSpace=wrap;connectable=0;strokeColor=inherit;overflow=hidden;fillColor=none;top=0;left=0;bottom=0;right=0;pointerEvents=1;fontSize=16;" vertex="1" parent="NKexMCV8kcUPG6wa-SMc-136">
          <mxGeometry x="105" width="72" height="89" as="geometry">
            <mxRectangle width="72" height="89" as="alternateBounds" />
          </mxGeometry>
        </mxCell>
        <mxCell id="NKexMCV8kcUPG6wa-SMc-139" value="&lt;div style=&quot;&quot;&gt;&lt;span style=&quot;background-color: initial;&quot;&gt;R. Serafim Constantino, 62&amp;nbsp;&amp;nbsp;&lt;/span&gt;&lt;/div&gt;" style="shape=partialRectangle;html=1;whiteSpace=wrap;connectable=0;strokeColor=inherit;overflow=hidden;fillColor=none;top=0;left=0;bottom=0;right=0;pointerEvents=1;fontSize=16;align=center;" vertex="1" parent="NKexMCV8kcUPG6wa-SMc-136">
          <mxGeometry x="177" width="129" height="89" as="geometry">
            <mxRectangle width="129" height="89" as="alternateBounds" />
          </mxGeometry>
        </mxCell>
        <mxCell id="NKexMCV8kcUPG6wa-SMc-140" value="Centro" style="shape=partialRectangle;html=1;whiteSpace=wrap;connectable=0;strokeColor=inherit;overflow=hidden;fillColor=none;top=0;left=0;bottom=0;right=0;pointerEvents=1;fontSize=16;" vertex="1" parent="NKexMCV8kcUPG6wa-SMc-136">
          <mxGeometry x="306" width="119" height="89" as="geometry">
            <mxRectangle width="119" height="89" as="alternateBounds" />
          </mxGeometry>
        </mxCell>
        <mxCell id="NKexMCV8kcUPG6wa-SMc-141" value="São Caetano do Sul - SP" style="shape=partialRectangle;html=1;whiteSpace=wrap;connectable=0;strokeColor=inherit;overflow=hidden;fillColor=none;top=0;left=0;bottom=0;right=0;pointerEvents=1;fontSize=16;" vertex="1" parent="NKexMCV8kcUPG6wa-SMc-136">
          <mxGeometry x="425" width="159" height="89" as="geometry">
            <mxRectangle width="159" height="89" as="alternateBounds" />
          </mxGeometry>
        </mxCell>
        <mxCell id="NKexMCV8kcUPG6wa-SMc-145" value="Telefone" style="shape=table;startSize=30;container=1;collapsible=0;childLayout=tableLayout;strokeColor=default;fontSize=16;" vertex="1" parent="1">
          <mxGeometry x="1738" y="556" width="226.28765869140614" height="230" as="geometry" />
        </mxCell>
        <mxCell id="NKexMCV8kcUPG6wa-SMc-146" value="" style="shape=tableRow;horizontal=0;startSize=0;swimlaneHead=0;swimlaneBody=0;strokeColor=inherit;top=0;left=0;bottom=0;right=0;collapsible=0;dropTarget=0;fillColor=none;points=[[0,0.5],[1,0.5]];portConstraint=eastwest;fontSize=16;" vertex="1" parent="NKexMCV8kcUPG6wa-SMc-145">
          <mxGeometry y="30" width="226.28765869140614" height="40" as="geometry" />
        </mxCell>
        <mxCell id="NKexMCV8kcUPG6wa-SMc-147" value="IdEstagiario" style="shape=partialRectangle;html=1;whiteSpace=wrap;connectable=0;strokeColor=inherit;overflow=hidden;fillColor=none;top=0;left=0;bottom=0;right=0;pointerEvents=1;fontSize=16;" vertex="1" parent="NKexMCV8kcUPG6wa-SMc-146">
          <mxGeometry width="110" height="40" as="geometry">
            <mxRectangle width="110" height="40" as="alternateBounds" />
          </mxGeometry>
        </mxCell>
        <mxCell id="NKexMCV8kcUPG6wa-SMc-148" value="Numero" style="shape=partialRectangle;html=1;whiteSpace=wrap;connectable=0;strokeColor=inherit;overflow=hidden;fillColor=none;top=0;left=0;bottom=0;right=0;pointerEvents=1;fontSize=16;" vertex="1" parent="NKexMCV8kcUPG6wa-SMc-146">
          <mxGeometry x="110" width="116" height="40" as="geometry">
            <mxRectangle width="116" height="40" as="alternateBounds" />
          </mxGeometry>
        </mxCell>
        <mxCell id="NKexMCV8kcUPG6wa-SMc-149" value="" style="shape=tableRow;horizontal=0;startSize=0;swimlaneHead=0;swimlaneBody=0;strokeColor=inherit;top=0;left=0;bottom=0;right=0;collapsible=0;dropTarget=0;fillColor=none;points=[[0,0.5],[1,0.5]];portConstraint=eastwest;fontSize=16;" vertex="1" parent="NKexMCV8kcUPG6wa-SMc-145">
          <mxGeometry y="70" width="226.28765869140614" height="40" as="geometry" />
        </mxCell>
        <mxCell id="NKexMCV8kcUPG6wa-SMc-150" value="1" style="shape=partialRectangle;html=1;whiteSpace=wrap;connectable=0;strokeColor=inherit;overflow=hidden;fillColor=none;top=0;left=0;bottom=0;right=0;pointerEvents=1;fontSize=16;" vertex="1" parent="NKexMCV8kcUPG6wa-SMc-149">
          <mxGeometry width="110" height="40" as="geometry">
            <mxRectangle width="110" height="40" as="alternateBounds" />
          </mxGeometry>
        </mxCell>
        <mxCell id="NKexMCV8kcUPG6wa-SMc-151" value="11 97834-7864" style="shape=partialRectangle;html=1;whiteSpace=wrap;connectable=0;strokeColor=inherit;overflow=hidden;fillColor=none;top=0;left=0;bottom=0;right=0;pointerEvents=1;fontSize=16;" vertex="1" parent="NKexMCV8kcUPG6wa-SMc-149">
          <mxGeometry x="110" width="116" height="40" as="geometry">
            <mxRectangle width="116" height="40" as="alternateBounds" />
          </mxGeometry>
        </mxCell>
        <mxCell id="NKexMCV8kcUPG6wa-SMc-152" value="" style="shape=tableRow;horizontal=0;startSize=0;swimlaneHead=0;swimlaneBody=0;strokeColor=inherit;top=0;left=0;bottom=0;right=0;collapsible=0;dropTarget=0;fillColor=none;points=[[0,0.5],[1,0.5]];portConstraint=eastwest;fontSize=16;" vertex="1" parent="NKexMCV8kcUPG6wa-SMc-145">
          <mxGeometry y="110" width="226.28765869140614" height="40" as="geometry" />
        </mxCell>
        <mxCell id="NKexMCV8kcUPG6wa-SMc-153" value="2" style="shape=partialRectangle;html=1;whiteSpace=wrap;connectable=0;strokeColor=inherit;overflow=hidden;fillColor=none;top=0;left=0;bottom=0;right=0;pointerEvents=1;fontSize=16;" vertex="1" parent="NKexMCV8kcUPG6wa-SMc-152">
          <mxGeometry width="110" height="40" as="geometry">
            <mxRectangle width="110" height="40" as="alternateBounds" />
          </mxGeometry>
        </mxCell>
        <mxCell id="NKexMCV8kcUPG6wa-SMc-154" value="11 94654-5367" style="shape=partialRectangle;html=1;whiteSpace=wrap;connectable=0;strokeColor=inherit;overflow=hidden;fillColor=none;top=0;left=0;bottom=0;right=0;pointerEvents=1;fontSize=16;" vertex="1" parent="NKexMCV8kcUPG6wa-SMc-152">
          <mxGeometry x="110" width="116" height="40" as="geometry">
            <mxRectangle width="116" height="40" as="alternateBounds" />
          </mxGeometry>
        </mxCell>
        <mxCell id="NKexMCV8kcUPG6wa-SMc-155" style="shape=tableRow;horizontal=0;startSize=0;swimlaneHead=0;swimlaneBody=0;strokeColor=inherit;top=0;left=0;bottom=0;right=0;collapsible=0;dropTarget=0;fillColor=none;points=[[0,0.5],[1,0.5]];portConstraint=eastwest;fontSize=16;" vertex="1" parent="NKexMCV8kcUPG6wa-SMc-145">
          <mxGeometry y="150" width="226.28765869140614" height="40" as="geometry" />
        </mxCell>
        <mxCell id="NKexMCV8kcUPG6wa-SMc-156" value="2" style="shape=partialRectangle;html=1;whiteSpace=wrap;connectable=0;strokeColor=inherit;overflow=hidden;fillColor=none;top=0;left=0;bottom=0;right=0;pointerEvents=1;fontSize=16;" vertex="1" parent="NKexMCV8kcUPG6wa-SMc-155">
          <mxGeometry width="110" height="40" as="geometry">
            <mxRectangle width="110" height="40" as="alternateBounds" />
          </mxGeometry>
        </mxCell>
        <mxCell id="NKexMCV8kcUPG6wa-SMc-157" value="11 93635-4345" style="shape=partialRectangle;html=1;whiteSpace=wrap;connectable=0;strokeColor=inherit;overflow=hidden;fillColor=none;top=0;left=0;bottom=0;right=0;pointerEvents=1;fontSize=16;" vertex="1" parent="NKexMCV8kcUPG6wa-SMc-155">
          <mxGeometry x="110" width="116" height="40" as="geometry">
            <mxRectangle width="116" height="40" as="alternateBounds" />
          </mxGeometry>
        </mxCell>
        <mxCell id="NKexMCV8kcUPG6wa-SMc-158" style="shape=tableRow;horizontal=0;startSize=0;swimlaneHead=0;swimlaneBody=0;strokeColor=inherit;top=0;left=0;bottom=0;right=0;collapsible=0;dropTarget=0;fillColor=none;points=[[0,0.5],[1,0.5]];portConstraint=eastwest;fontSize=16;" vertex="1" parent="NKexMCV8kcUPG6wa-SMc-145">
          <mxGeometry y="190" width="226.28765869140614" height="40" as="geometry" />
        </mxCell>
        <mxCell id="NKexMCV8kcUPG6wa-SMc-159" value="1" style="shape=partialRectangle;html=1;whiteSpace=wrap;connectable=0;strokeColor=inherit;overflow=hidden;fillColor=none;top=0;left=0;bottom=0;right=0;pointerEvents=1;fontSize=16;" vertex="1" parent="NKexMCV8kcUPG6wa-SMc-158">
          <mxGeometry width="110" height="40" as="geometry">
            <mxRectangle width="110" height="40" as="alternateBounds" />
          </mxGeometry>
        </mxCell>
        <mxCell id="NKexMCV8kcUPG6wa-SMc-160" value="11 96543-8643" style="shape=partialRectangle;html=1;whiteSpace=wrap;connectable=0;strokeColor=inherit;overflow=hidden;fillColor=none;top=0;left=0;bottom=0;right=0;pointerEvents=1;fontSize=16;" vertex="1" parent="NKexMCV8kcUPG6wa-SMc-158">
          <mxGeometry x="110" width="116" height="40" as="geometry">
            <mxRectangle width="116" height="40" as="alternateBounds" />
          </mxGeometry>
        </mxCell>
      </root>
    </mxGraphModel>
  </diagram>
</mxfile>
